<svg width="25" height="25" viewBox="0 0 25 25" fill="none" xmlns="http://www.w3.org/2000/svg">
<path d="M12.5001 0C5.59739 0 0 5.73067 0 12.8001C0 18.4555 3.58166 23.2536 8.54833 24.9461C9.17305 25.0646 9.4024 24.6684 9.4024 24.3303C9.4024 24.0251 9.39081 23.0168 9.38543 21.9472C5.90789 22.7215 5.17408 20.437 5.17408 20.437C4.60546 18.9575 3.78617 18.5641 3.78617 18.5641C2.65204 17.7696 3.87166 17.7859 3.87166 17.7859C5.12689 17.8762 5.78783 19.105 5.78783 19.105C6.90271 21.0618 8.71207 20.4961 9.42538 20.169C9.53757 19.3418 9.86152 18.7771 10.219 18.4574C7.44256 18.1338 4.52391 17.0362 4.52391 12.1316C4.52391 10.7341 5.01221 9.59224 5.81184 8.69584C5.68205 8.37344 5.25419 7.07156 5.93293 5.30844C5.93293 5.30844 6.98261 4.96442 9.37135 6.6205C10.3685 6.33689 11.4378 6.19466 12.5001 6.18978C13.5624 6.19466 14.6326 6.33689 15.6315 6.6205C18.0174 4.96442 19.0656 5.30844 19.0656 5.30844C19.746 7.07156 19.3179 8.37344 19.1882 8.69584C19.9897 9.59224 20.4746 10.7341 20.4746 12.1316C20.4746 17.0479 17.5504 18.1304 14.7669 18.4473C15.2153 18.8445 15.6148 19.6235 15.6148 20.8177C15.6148 22.5303 15.6003 23.9087 15.6003 24.3303C15.6003 24.671 15.8253 25.0701 16.4589 24.9444C21.4229 23.25 25 18.4536 25 12.8001C25 5.73067 19.4034 0 12.5001 0ZM4.6817 18.234C4.65416 18.2976 4.55646 18.3167 4.46745 18.273C4.37679 18.2313 4.32587 18.1446 4.35526 18.0808C4.38217 18.0153 4.48008 17.997 4.57054 18.0409C4.66141 18.0827 4.71316 18.1702 4.6817 18.234ZM5.29656 18.7958C5.23695 18.8524 5.12041 18.8261 5.04133 18.7367C4.95957 18.6474 4.94425 18.5281 5.0047 18.4707C5.06617 18.4141 5.17919 18.4406 5.26116 18.5298C5.34293 18.6201 5.35887 18.7386 5.29656 18.7958ZM5.71838 19.5146C5.64179 19.5691 5.51656 19.518 5.43914 19.4042C5.36256 19.2904 5.36256 19.1539 5.4408 19.0992C5.51842 19.0445 5.64179 19.0937 5.72025 19.2067C5.79663 19.3224 5.79663 19.4589 5.71838 19.5146ZM6.43177 20.3471C6.36326 20.4245 6.21732 20.4037 6.11051 20.2982C6.00122 20.1949 5.97079 20.0485 6.03952 19.9711C6.10886 19.8935 6.25562 19.9153 6.36326 20.0201C6.47172 20.1231 6.50484 20.2706 6.43177 20.3471ZM7.35376 20.6282C7.32354 20.7284 7.18299 20.774 7.0414 20.7314C6.90003 20.6875 6.8075 20.5701 6.83606 20.4688C6.86546 20.3679 7.00663 20.3204 7.14925 20.366C7.29042 20.4096 7.38315 20.5262 7.35376 20.6282ZM8.40302 20.7474C8.40654 20.8529 8.28648 20.9405 8.13786 20.9424C7.98841 20.9458 7.86752 20.8603 7.86587 20.7565C7.86587 20.6499 7.98323 20.5632 8.13268 20.5606C8.28131 20.5577 8.40302 20.6424 8.40302 20.7474ZM9.4338 20.7069C9.45161 20.8099 9.34831 20.9157 9.20073 20.9439C9.05562 20.971 8.92128 20.9074 8.90286 20.8053C8.88485 20.6997 8.99 20.5939 9.1349 20.5666C9.2827 20.5403 9.41497 20.6022 9.4338 20.7069Z" fill="white"/>
</svg>
