<svg width="25" height="25" viewBox="0 0 25 25" fill="none" xmlns="http://www.w3.org/2000/svg">
<g clip-path="url(#clip0)">
<path fill-rule="evenodd" clip-rule="evenodd" d="M24.9253 11.1123C24.8858 10.7608 24.476 10.4968 24.1217 10.4968C22.9762 10.4968 21.9597 9.82414 21.5334 8.78392C21.0979 7.71849 21.3787 6.47596 22.2324 5.69284C22.5011 5.44718 22.5338 5.03594 22.3084 4.75029C21.7221 4.00577 21.0557 3.33325 20.3281 2.7504C20.0432 2.52176 19.6252 2.55357 19.3782 2.82714C18.6331 3.6523 17.2947 3.95898 16.2606 3.52747C15.1843 3.07475 14.5057 1.98421 14.5721 0.813576C14.594 0.445875 14.3252 0.126172 13.9586 0.083477C13.0249 -0.0245169 12.083 -0.0278656 11.1465 0.0760356C10.7841 0.116033 10.5154 0.428202 10.5276 0.791251C10.5683 1.95035 9.88148 3.02182 8.81596 3.45827C7.79415 3.87564 6.4652 3.57156 5.72162 2.75375C5.47586 2.48437 5.06463 2.45125 4.77832 2.6744C4.02915 3.26218 3.3478 3.93526 2.75611 4.67364C2.52533 4.96069 2.55928 5.37676 2.83071 5.62373C3.70071 6.41159 3.98162 7.66491 3.52965 8.74262C3.09814 9.7701 2.03122 10.4323 0.809799 10.4323C0.413449 10.4196 0.13114 10.6856 0.0877931 11.0459C-0.0221542 11.985 -0.0234565 12.9419 0.0823981 13.8887C0.121652 14.2416 0.543861 14.5033 0.902073 14.5033C1.99057 14.4755 3.03563 15.1494 3.47402 16.2162C3.91102 17.2817 3.63011 18.5235 2.77508 19.3072C2.50766 19.5529 2.47371 19.9635 2.69909 20.2491C3.27989 20.9889 3.94637 21.6621 4.67656 22.2498C4.96296 22.4806 5.37968 22.448 5.62795 22.1744C6.37581 21.3472 7.71406 21.0411 8.74415 21.4734C9.82306 21.9248 10.5017 23.0152 10.4353 24.1865C10.4136 24.5544 10.6837 24.8747 11.0488 24.9167C11.5264 24.9724 12.0069 25.0002 12.4888 25.0002C12.9461 25.0002 13.4036 24.9751 13.861 24.9242C14.2235 24.8842 14.492 24.5721 14.4798 24.2084C14.4379 23.0499 15.1259 21.9784 16.1901 21.5427C17.2187 21.1226 18.5421 21.4301 19.2858 22.2471C19.5329 22.5159 19.9413 22.5484 20.2292 22.326C20.9769 21.7396 21.6569 21.067 22.2514 20.3266C22.4821 20.0402 22.4495 19.6235 22.1767 19.3766C21.3067 18.5888 21.0244 17.3353 21.4764 16.2583C21.9013 15.2445 22.9286 14.5638 24.0335 14.5638L24.1881 14.5678C24.5465 14.5969 24.8763 14.3208 24.9197 13.955C25.0298 13.015 25.0311 12.059 24.9253 11.1123ZM12.5237 16.6961C10.2244 16.6961 8.35421 14.8259 8.35421 12.5267C8.35421 10.2276 10.2244 8.35725 12.5237 8.35725C14.8228 8.35725 16.693 10.2276 16.693 12.5267C16.693 14.8259 14.8228 16.6961 12.5237 16.6961Z" fill="white"/>
</g>
<defs>
<clipPath id="clip0">
<rect width="25" height="25" fill="white"/>
</clipPath>
</defs>
</svg>
